<?xml version="1.0" standalone="no"?>
<svg width="1056" height="816" xmlns="http://www.w3.org/2000/svg" id="svgvm1"><g transform="translate(5,5)" style="font-family: sans-serif;"><g transform="translate(0,1)"><g><g class="tactic initial-access" transform="translate(0, 0)"><g class="techniques"><g class="technique T1078" transform="translate(0, 42.421052631578945)"><rect class="cell" height="42.421052631578945" width="86.36697247706422" fill="#e60d0d" stroke="#6B7279"/><polygon class="sidebar" transform="translate(0, 42.421052631578945)" points="0,0 12,0 12,12" fill="#6B7279" visibility="visible"/><text font-size="12" fill="white"><tspan x="4" y="17.460526315789473">Valid</tspan><tspan x="4" y="31.960526315789473">Accounts</tspan></text></g></g><g class="subtechniques"><g class="subtechnique T1078.001" transform="translate(15, 84.84210526315789)"><rect class="cell" height="42.421052631578945" width="71.36697247706422" fill="#31a354" stroke="#6B7279"/><rect class="cell" height="42.421052631578945" width="3" transform="translate(-3, 0)" fill="#6B7279" stroke="#6B7279"/><text font-size="11.48526376146789" fill="black"><tspan x="4" y="17.460526315789473">Default</tspan><tspan x="4" y="31.960526315789473">Accounts</tspan></text></g><g class="subtechnique T1078.002" transform="translate(15, 127.26315789473684)"><rect class="cell" height="42.421052631578945" width="71.36697247706422" fill="#e60d0d" stroke="#6B7279"/><rect class="cell" height="42.421052631578945" width="3" transform="translate(-3, 0)" fill="#6B7279" stroke="#6B7279"/><text font-size="11.48526376146789" fill="white"><tspan x="4" y="17.460526315789473">Domain</tspan><tspan x="4" y="31.960526315789473">Accounts</tspan></text></g><g class="subtechnique T1078.003" transform="translate(15, 169.68421052631578)"><rect class="cell" height="42.421052631578945" width="71.36697247706422" fill="#e6d60d" stroke="#6B7279"/><rect class="cell" height="42.421052631578945" width="3" transform="translate(-3, 0)" fill="#6B7279" stroke="#6B7279"/><text font-size="11.48526376146789" fill="black"><tspan x="4" y="17.460526315789473">Local</tspan><tspan x="4" y="31.960526315789473">Accounts</tspan></text></g></g><g class="tactic-label"><text font-size="12" fill="black" font-weight="bold"><tspan text-anchor="middle" x="43.18348623853211" y="17.460526315789473">Initial</tspan><tspan text-anchor="middle" x="43.18348623853211" y="31.960526315789473">Access</tspan></text></g></g><g class="tactic execution" transform="translate(95.96330275229357, 0)"><g class="techniques"><g class="technique T1053" transform="translate(0, 42.421052631578945)"><rect class="cell" height="42.421052631578945" width="86.36697247706422" fill="#31a354" stroke="#6B7279"/><polygon class="sidebar" transform="translate(0, 42.421052631578945)" points="0,0 12,0 12,12" fill="#6B7279" visibility="visible"/><text font-size="12" fill="black"><tspan x="4" y="17.460526315789473">Scheduled</tspan><tspan x="4" y="31.960526315789473">Task/Job</tspan></text></g><g class="technique T1047" transform="translate(0, 127.26315789473684)"><rect class="cell" height="42.421052631578945" width="86.36697247706422" fill="#31a354" stroke="#6B7279"/><polygon class="sidebar" transform="translate(0, 42.421052631578945)" points="0,0 12,0 12,0" fill="#6B7279" visibility="hidden"/><text font-size="7.575474006116208" fill="black"><tspan x="4" y="9.903508771929825">Windows</tspan><tspan x="4" y="23.710526315789473">Management</tspan><tspan x="4" y="37.51754385964912">Instrumentation</tspan></text></g></g><g class="subtechniques"><g class="subtechnique T1053.005" transform="translate(15, 84.84210526315789)"><rect class="cell" height="42.421052631578945" width="71.36697247706422" fill="#31a354" stroke="#6B7279"/><rect class="cell" height="42.421052631578945" width="3" transform="translate(-3, 0)" fill="#6B7279" stroke="#6B7279"/><text font-size="10.209123343527013" fill="black"><tspan x="4" y="17.460526315789473">Scheduled</tspan><tspan x="4" y="31.960526315789473">Task</tspan></text></g></g><g class="tactic-label"><text font-size="12" fill="black" font-weight="bold"><tspan text-anchor="middle" x="43.18348623853211" y="24.710526315789473">Execution</tspan></text></g></g><g class="tactic persistence" transform="translate(191.92660550458714, 0)"><g class="techniques"><g class="technique T1197" transform="translate(0, 42.421052631578945)"><rect class="cell" height="42.421052631578945" width="86.36697247706422" fill="#31a354" stroke="#6B7279"/><polygon class="sidebar" transform="translate(0, 42.421052631578945)" points="0,0 12,0 12,0" fill="#6B7279" visibility="hidden"/><text font-size="12" fill="black"><tspan x="4" y="24.710526315789473">BITS Jobs</tspan></text></g><g class="technique T1136" transform="translate(0, 84.84210526315789)"><rect class="cell" height="42.421052631578945" width="86.36697247706422" fill="#31a354" stroke="#6B7279"/><polygon class="sidebar" transform="translate(0, 42.421052631578945)" points="0,0 12,0 12,12" fill="#6B7279" visibility="visible"/><text font-size="12" fill="black"><tspan x="4" y="17.460526315789473">Create</tspan><tspan x="4" y="31.960526315789473">Account</tspan></text></g><g class="technique T1053" transform="translate(0, 169.68421052631578)"><rect class="cell" height="42.421052631578945" width="86.36697247706422" fill="#31a354" stroke="#6B7279"/><polygon class="sidebar" transform="translate(0, 42.421052631578945)" points="0,0 12,0 12,12" fill="#6B7279" visibility="visible"/><text font-size="12" fill="black"><tspan x="4" y="17.460526315789473">Scheduled</tspan><tspan x="4" y="31.960526315789473">Task/Job</tspan></text></g><g class="technique T1078" transform="translate(0, 254.52631578947367)"><rect class="cell" height="42.421052631578945" width="86.36697247706422" fill="#e60d0d" stroke="#6B7279"/><polygon class="sidebar" transform="translate(0, 42.421052631578945)" points="0,0 12,0 12,12" fill="#6B7279" visibility="visible"/><text font-size="12" fill="white"><tspan x="4" y="17.460526315789473">Valid</tspan><tspan x="4" y="31.960526315789473">Accounts</tspan></text></g></g><g class="subtechniques"><g class="subtechnique T1136.001" transform="translate(15, 127.26315789473684)"><rect class="cell" height="42.421052631578945" width="71.36697247706422" fill="#31a354" stroke="#6B7279"/><rect class="cell" height="42.421052631578945" width="3" transform="translate(-3, 0)" fill="#6B7279" stroke="#6B7279"/><text font-size="12" fill="black"><tspan x="4" y="17.460526315789473">Local</tspan><tspan x="4" y="31.960526315789473">Account</tspan></text></g><g class="subtechnique T1053.005" transform="translate(15, 212.1052631578947)"><rect class="cell" height="42.421052631578945" width="71.36697247706422" fill="#31a354" stroke="#6B7279"/><rect class="cell" height="42.421052631578945" width="3" transform="translate(-3, 0)" fill="#6B7279" stroke="#6B7279"/><text font-size="10.209123343527013" fill="black"><tspan x="4" y="17.460526315789473">Scheduled</tspan><tspan x="4" y="31.960526315789473">Task</tspan></text></g><g class="subtechnique T1078.001" transform="translate(15, 296.9473684210526)"><rect class="cell" height="42.421052631578945" width="71.36697247706422" fill="#31a354" stroke="#6B7279"/><rect class="cell" height="42.421052631578945" width="3" transform="translate(-3, 0)" fill="#6B7279" stroke="#6B7279"/><text font-size="11.48526376146789" fill="black"><tspan x="4" y="17.460526315789473">Default</tspan><tspan x="4" y="31.960526315789473">Accounts</tspan></text></g><g class="subtechnique T1078.002" transform="translate(15, 339.36842105263156)"><rect class="cell" height="42.421052631578945" width="71.36697247706422" fill="#e60d0d" stroke="#6B7279"/><rect class="cell" height="42.421052631578945" width="3" transform="translate(-3, 0)" fill="#6B7279" stroke="#6B7279"/><text font-size="11.48526376146789" fill="white"><tspan x="4" y="17.460526315789473">Domain</tspan><tspan x="4" y="31.960526315789473">Accounts</tspan></text></g><g class="subtechnique T1078.003" transform="translate(15, 381.7894736842105)"><rect class="cell" height="42.421052631578945" width="71.36697247706422" fill="#e6d60d" stroke="#6B7279"/><rect class="cell" height="42.421052631578945" width="3" transform="translate(-3, 0)" fill="#6B7279" stroke="#6B7279"/><text font-size="11.48526376146789" fill="black"><tspan x="4" y="17.460526315789473">Local</tspan><tspan x="4" y="31.960526315789473">Accounts</tspan></text></g></g><g class="tactic-label"><text font-size="10.330191826522102" fill="black" font-weight="bold"><tspan text-anchor="middle" x="43.18348623853211" y="24.710526315789473">Persistence</tspan></text></g></g><g class="tactic privilege-escalation" transform="translate(287.88990825688074, 0)"><g class="techniques"><g class="technique T1134" transform="translate(0, 42.421052631578945)"><rect class="cell" height="42.421052631578945" width="86.36697247706422" fill="#e6d60d" stroke="#6B7279"/><polygon class="sidebar" transform="translate(0, 42.421052631578945)" points="0,0 12,0 12,12" fill="#6B7279" visibility="hidden"/><text font-size="9.46934250764526" fill="black"><tspan x="4" y="16.460526315789473">Access Token</tspan><tspan x="4" y="30.960526315789473">Manipulation</tspan></text></g><g class="technique T1484" transform="translate(0, 84.84210526315789)"><rect class="cell" height="42.421052631578945" width="86.36697247706422" fill="#e60d0d" stroke="#6B7279"/><polygon class="sidebar" transform="translate(0, 42.421052631578945)" points="0,0 12,0 12,12" fill="#6B7279" visibility="visible"/><text font-size="9.46934250764526" fill="white"><tspan x="4" y="9.903508771929825">Domain</tspan><tspan x="4" y="23.710526315789473">Policy</tspan><tspan x="4" y="37.51754385964912">Modification</tspan></text></g><g class="technique T1068" transform="translate(0, 169.68421052631578)"><rect class="cell" height="42.421052631578945" width="86.36697247706422" fill="#3182bd" stroke="#6B7279"/><polygon class="sidebar" transform="translate(0, 42.421052631578945)" points="0,0 12,0 12,0" fill="#6B7279" visibility="hidden"/><text font-size="8.740931545518702" fill="black"><tspan x="4" y="9.903508771929825">Exploitation</tspan><tspan x="4" y="23.710526315789473">for Privilege</tspan><tspan x="4" y="37.51754385964912">Escalation</tspan></text></g><g class="technique T1055" transform="translate(0, 212.1052631578947)"><rect class="cell" height="42.421052631578945" width="86.36697247706422" fill="#e60d0d" stroke="#6B7279"/><polygon class="sidebar" transform="translate(0, 42.421052631578945)" points="0,0 12,0 12,12" fill="#6B7279" visibility="hidden"/><text font-size="12" fill="white"><tspan x="4" y="17.460526315789473">Process</tspan><tspan x="4" y="31.960526315789473">Injection</tspan></text></g><g class="technique T1053" transform="translate(0, 254.52631578947367)"><rect class="cell" height="42.421052631578945" width="86.36697247706422" fill="#31a354" stroke="#6B7279"/><polygon class="sidebar" transform="translate(0, 42.421052631578945)" points="0,0 12,0 12,12" fill="#6B7279" visibility="visible"/><text font-size="12" fill="black"><tspan x="4" y="17.460526315789473">Scheduled</tspan><tspan x="4" y="31.960526315789473">Task/Job</tspan></text></g><g class="technique T1078" transform="translate(0, 339.36842105263156)"><rect class="cell" height="42.421052631578945" width="86.36697247706422" fill="#e60d0d" stroke="#6B7279"/><polygon class="sidebar" transform="translate(0, 42.421052631578945)" points="0,0 12,0 12,12" fill="#6B7279" visibility="visible"/><text font-size="12" fill="white"><tspan x="4" y="17.460526315789473">Valid</tspan><tspan x="4" y="31.960526315789473">Accounts</tspan></text></g></g><g class="subtechniques"><g class="subtechnique T1484.001" transform="translate(15, 127.26315789473684)"><rect class="cell" height="42.421052631578945" width="71.36697247706422" fill="#e60d0d" stroke="#6B7279"/><rect class="cell" height="42.421052631578945" width="3" transform="translate(-3, 0)" fill="#6B7279" stroke="#6B7279"/><text font-size="7.656842507645259" fill="white"><tspan x="4" y="16.460526315789473">Group Policy</tspan><tspan x="4" y="30.960526315789473">Modification</tspan></text></g><g class="subtechnique T1053.005" transform="translate(15, 296.9473684210526)"><rect class="cell" height="42.421052631578945" width="71.36697247706422" fill="#31a354" stroke="#6B7279"/><rect class="cell" height="42.421052631578945" width="3" transform="translate(-3, 0)" fill="#6B7279" stroke="#6B7279"/><text font-size="10.209123343527013" fill="black"><tspan x="4" y="17.460526315789473">Scheduled</tspan><tspan x="4" y="31.960526315789473">Task</tspan></text></g><g class="subtechnique T1078.001" transform="translate(15, 381.7894736842105)"><rect class="cell" height="42.421052631578945" width="71.36697247706422" fill="#31a354" stroke="#6B7279"/><rect class="cell" height="42.421052631578945" width="3" transform="translate(-3, 0)" fill="#6B7279" stroke="#6B7279"/><text font-size="11.48526376146789" fill="black"><tspan x="4" y="17.460526315789473">Default</tspan><tspan x="4" y="31.960526315789473">Accounts</tspan></text></g><g class="subtechnique T1078.002" transform="translate(15, 424.2105263157894)"><rect class="cell" height="42.421052631578945" width="71.36697247706422" fill="#e60d0d" stroke="#6B7279"/><rect class="cell" height="42.421052631578945" width="3" transform="translate(-3, 0)" fill="#6B7279" stroke="#6B7279"/><text font-size="11.48526376146789" fill="white"><tspan x="4" y="17.460526315789473">Domain</tspan><tspan x="4" y="31.960526315789473">Accounts</tspan></text></g><g class="subtechnique T1078.003" transform="translate(15, 466.63157894736844)"><rect class="cell" height="42.421052631578945" width="71.36697247706422" fill="#e6d60d" stroke="#6B7279"/><rect class="cell" height="42.421052631578945" width="3" transform="translate(-3, 0)" fill="#6B7279" stroke="#6B7279"/><text font-size="11.48526376146789" fill="black"><tspan x="4" y="17.460526315789473">Local</tspan><tspan x="4" y="31.960526315789473">Accounts</tspan></text></g></g><g class="tactic-label"><text font-size="11.363211009174313" fill="black" font-weight="bold"><tspan text-anchor="middle" x="43.18348623853211" y="17.460526315789473">Privilege</tspan><tspan text-anchor="middle" x="43.18348623853211" y="31.960526315789473">Escalation</tspan></text></g></g><g class="tactic defense-evasion" transform="translate(383.8532110091743, 0)"><g class="techniques"><g class="technique T1134" transform="translate(0, 42.421052631578945)"><rect class="cell" height="42.421052631578945" width="86.36697247706422" fill="#e6d60d" stroke="#6B7279"/><polygon class="sidebar" transform="translate(0, 42.421052631578945)" points="0,0 12,0 12,12" fill="#6B7279" visibility="hidden"/><text font-size="9.46934250764526" fill="black"><tspan x="4" y="16.460526315789473">Access Token</tspan><tspan x="4" y="30.960526315789473">Manipulation</tspan></text></g><g class="technique T1197" transform="translate(0, 84.84210526315789)"><rect class="cell" height="42.421052631578945" width="86.36697247706422" fill="#31a354" stroke="#6B7279"/><polygon class="sidebar" transform="translate(0, 42.421052631578945)" points="0,0 12,0 12,0" fill="#6B7279" visibility="hidden"/><text font-size="12" fill="black"><tspan x="4" y="24.710526315789473">BITS Jobs</tspan></text></g><g class="technique T1484" transform="translate(0, 127.26315789473684)"><rect class="cell" height="42.421052631578945" width="86.36697247706422" fill="#e60d0d" stroke="#6B7279"/><polygon class="sidebar" transform="translate(0, 42.421052631578945)" points="0,0 12,0 12,12" fill="#6B7279" visibility="visible"/><text font-size="9.46934250764526" fill="white"><tspan x="4" y="9.903508771929825">Domain</tspan><tspan x="4" y="23.710526315789473">Policy</tspan><tspan x="4" y="37.51754385964912">Modification</tspan></text></g><g class="technique T1564" transform="translate(0, 212.1052631578947)"><rect class="cell" height="42.421052631578945" width="86.36697247706422" fill="#e60d0d" stroke="#6B7279"/><polygon class="sidebar" transform="translate(0, 42.421052631578945)" points="0,0 12,0 12,12" fill="#6B7279" visibility="hidden"/><text font-size="12" fill="white"><tspan x="4" y="17.460526315789473">Hide</tspan><tspan x="4" y="31.960526315789473">Artifacts</tspan></text></g><g class="technique T1562" transform="translate(0, 254.52631578947367)"><rect class="cell" height="42.421052631578945" width="86.36697247706422" fill="#31a354" stroke="#6B7279"/><polygon class="sidebar" transform="translate(0, 42.421052631578945)" points="0,0 12,0 12,12" fill="#6B7279" visibility="visible"/><text font-size="12" fill="black"><tspan x="4" y="17.460526315789473">Impair</tspan><tspan x="4" y="31.960526315789473">Defenses</tspan></text></g><g class="technique T1112" transform="translate(0, 381.7894736842105)"><rect class="cell" height="42.421052631578945" width="86.36697247706422" fill="#31a354" stroke="#6B7279"/><polygon class="sidebar" transform="translate(0, 42.421052631578945)" points="0,0 12,0 12,0" fill="#6B7279" visibility="hidden"/><text font-size="12" fill="black"><tspan x="4" y="17.460526315789473">Modify</tspan><tspan x="4" y="31.960526315789473">Registry</tspan></text></g><g class="technique T1055" transform="translate(0, 424.2105263157894)"><rect class="cell" height="42.421052631578945" width="86.36697247706422" fill="#e60d0d" stroke="#6B7279"/><polygon class="sidebar" transform="translate(0, 42.421052631578945)" points="0,0 12,0 12,12" fill="#6B7279" visibility="hidden"/><text font-size="12" fill="white"><tspan x="4" y="17.460526315789473">Process</tspan><tspan x="4" y="31.960526315789473">Injection</tspan></text></g><g class="technique T1218" transform="translate(0, 466.63157894736844)"><rect class="cell" height="42.421052631578945" width="86.36697247706422" fill="#3182bd" stroke="#6B7279"/><polygon class="sidebar" transform="translate(0, 42.421052631578945)" points="0,0 12,0 12,12" fill="#6B7279" visibility="visible"/><text font-size="9.46934250764526" fill="black"><tspan x="4" y="9.903508771929825">Signed</tspan><tspan x="4" y="23.710526315789473">Binary Proxy</tspan><tspan x="4" y="37.51754385964912">Execution</tspan></text></g><g class="technique T1550" transform="translate(0, 551.4736842105264)"><rect class="cell" height="42.421052631578945" width="86.36697247706422" fill="#e6d60d" stroke="#6B7279"/><polygon class="sidebar" transform="translate(0, 42.421052631578945)" points="0,0 12,0 12,12" fill="#6B7279" visibility="visible"/><text font-size="8.116579292267366" fill="black"><tspan x="4" y="9.903508771929825">Use Alternate</tspan><tspan x="4" y="23.710526315789473">Authentication</tspan><tspan x="4" y="37.51754385964912">Material</tspan></text></g><g class="technique T1078" transform="translate(0, 636.3157894736843)"><rect class="cell" height="42.421052631578945" width="86.36697247706422" fill="#e60d0d" stroke="#6B7279"/><polygon class="sidebar" transform="translate(0, 42.421052631578945)" points="0,0 12,0 12,12" fill="#6B7279" visibility="visible"/><text font-size="12" fill="white"><tspan x="4" y="17.460526315789473">Valid</tspan><tspan x="4" y="31.960526315789473">Accounts</tspan></text></g></g><g class="subtechniques"><g class="subtechnique T1484.001" transform="translate(15, 169.68421052631578)"><rect class="cell" height="42.421052631578945" width="71.36697247706422" fill="#e60d0d" stroke="#6B7279"/><rect class="cell" height="42.421052631578945" width="3" transform="translate(-3, 0)" fill="#6B7279" stroke="#6B7279"/><text font-size="7.656842507645259" fill="white"><tspan x="4" y="16.460526315789473">Group Policy</tspan><tspan x="4" y="30.960526315789473">Modification</tspan></text></g><g class="subtechnique T1562.001" transform="translate(15, 296.9473684210526)"><rect class="cell" height="42.421052631578945" width="71.36697247706422" fill="#31a354" stroke="#6B7279"/><rect class="cell" height="42.421052631578945" width="3" transform="translate(-3, 0)" fill="#6B7279" stroke="#6B7279"/><text font-size="10.209123343527013" fill="black"><tspan x="4" y="10.903508771929825">Disable</tspan><tspan x="4" y="24.710526315789473">or Modify</tspan><tspan x="4" y="38.51754385964912">Tools</tspan></text></g><g class="subtechnique T1562.004" transform="translate(15, 339.36842105263156)"><rect class="cell" height="42.421052631578945" width="71.36697247706422" fill="#31a354" stroke="#6B7279"/><rect class="cell" height="42.421052631578945" width="3" transform="translate(-3, 0)" fill="#6B7279" stroke="#6B7279"/><text font-size="8.48421052631579" fill="black"><tspan x="4" y="8.177631578947368">Disable</tspan><tspan x="4" y="18.532894736842103">or Modify</tspan><tspan x="4" y="28.888157894736842">System</tspan><tspan x="4" y="39.243421052631575">Firewall</tspan></text></g><g class="subtechnique T1218.011" transform="translate(15, 509.05263157894734)"><rect class="cell" height="42.421052631578945" width="71.36697247706422" fill="#3182bd" stroke="#6B7279"/><rect class="cell" height="42.421052631578945" width="3" transform="translate(-3, 0)" fill="#6B7279" stroke="#6B7279"/><text font-size="11.48526376146789" fill="black"><tspan x="4" y="24.710526315789473">Rundll32</tspan></text></g><g class="subtechnique T1550.002" transform="translate(15, 593.8947368421052)"><rect class="cell" height="42.421052631578945" width="71.36697247706422" fill="#e6d60d" stroke="#6B7279"/><rect class="cell" height="42.421052631578945" width="3" transform="translate(-3, 0)" fill="#6B7279" stroke="#6B7279"/><text font-size="11.48526376146789" fill="black"><tspan x="4" y="17.460526315789473">Pass</tspan><tspan x="4" y="31.960526315789473">the Hash</tspan></text></g><g class="subtechnique T1078.001" transform="translate(15, 678.7368421052631)"><rect class="cell" height="42.421052631578945" width="71.36697247706422" fill="#31a354" stroke="#6B7279"/><rect class="cell" height="42.421052631578945" width="3" transform="translate(-3, 0)" fill="#6B7279" stroke="#6B7279"/><text font-size="11.48526376146789" fill="black"><tspan x="4" y="17.460526315789473">Default</tspan><tspan x="4" y="31.960526315789473">Accounts</tspan></text></g><g class="subtechnique T1078.002" transform="translate(15, 721.1578947368421)"><rect class="cell" height="42.421052631578945" width="71.36697247706422" fill="#e60d0d" stroke="#6B7279"/><rect class="cell" height="42.421052631578945" width="3" transform="translate(-3, 0)" fill="#6B7279" stroke="#6B7279"/><text font-size="11.48526376146789" fill="white"><tspan x="4" y="17.460526315789473">Domain</tspan><tspan x="4" y="31.960526315789473">Accounts</tspan></text></g><g class="subtechnique T1078.003" transform="translate(15, 763.578947368421)"><rect class="cell" height="42.421052631578945" width="71.36697247706422" fill="#e6d60d" stroke="#6B7279"/><rect class="cell" height="42.421052631578945" width="3" transform="translate(-3, 0)" fill="#6B7279" stroke="#6B7279"/><text font-size="11.48526376146789" fill="black"><tspan x="4" y="17.460526315789473">Local</tspan><tspan x="4" y="31.960526315789473">Accounts</tspan></text></g></g><g class="tactic-label"><text font-size="12" fill="black" font-weight="bold"><tspan text-anchor="middle" x="43.18348623853211" y="17.460526315789473">Defense</tspan><tspan text-anchor="middle" x="43.18348623853211" y="31.960526315789473">Evasion</tspan></text></g></g><g class="tactic credential-access" transform="translate(479.81651376146783, 0)"><g class="techniques"><g class="technique T1110" transform="translate(0, 42.421052631578945)"><rect class="cell" height="42.421052631578945" width="86.36697247706422" fill="#e60d0d" stroke="#6B7279"/><polygon class="sidebar" transform="translate(0, 42.421052631578945)" points="0,0 12,0 12,12" fill="#6B7279" visibility="hidden"/><text font-size="12" fill="white"><tspan x="4" y="17.460526315789473">Brute</tspan><tspan x="4" y="31.960526315789473">Force</tspan></text></g><g class="technique T1555" transform="translate(0, 84.84210526315789)"><rect class="cell" height="42.421052631578945" width="86.36697247706422" fill="#e6d60d" stroke="#6B7279"/><polygon class="sidebar" transform="translate(0, 42.421052631578945)" points="0,0 12,0 12,12" fill="#6B7279" visibility="visible"/><text font-size="8.740931545518702" fill="black"><tspan x="4" y="9.903508771929825">Credentials</tspan><tspan x="4" y="23.710526315789473">from Password</tspan><tspan x="4" y="37.51754385964912">Stores</tspan></text></g><g class="technique T1003" transform="translate(0, 169.68421052631578)"><rect class="cell" height="42.421052631578945" width="86.36697247706422" fill="#31a354" stroke="#6B7279"/><polygon class="sidebar" transform="translate(0, 42.421052631578945)" points="0,0 12,0 12,12" fill="#6B7279" visibility="visible"/><text font-size="11.312280701754386" fill="black"><tspan x="4" y="10.903508771929825">OS</tspan><tspan x="4" y="24.710526315789473">Credential</tspan><tspan x="4" y="38.51754385964912">Dumping</tspan></text></g></g><g class="subtechniques"><g class="subtechnique T1555.003" transform="translate(15, 127.26315789473684)"><rect class="cell" height="42.421052631578945" width="71.36697247706422" fill="#e6d60d" stroke="#6B7279"/><rect class="cell" height="42.421052631578945" width="3" transform="translate(-3, 0)" fill="#6B7279" stroke="#6B7279"/><text font-size="8.352919099249375" fill="black"><tspan x="4" y="9.903508771929825">Credentials</tspan><tspan x="4" y="23.710526315789473">from Web</tspan><tspan x="4" y="37.51754385964912">Browsers</tspan></text></g><g class="subtechnique T1003.001" transform="translate(15, 212.1052631578947)"><rect class="cell" height="42.421052631578945" width="71.36697247706422" fill="#31a354" stroke="#6B7279"/><rect class="cell" height="42.421052631578945" width="3" transform="translate(-3, 0)" fill="#6B7279" stroke="#6B7279"/><text font-size="12" fill="black"><tspan x="4" y="17.460526315789473">LSASS</tspan><tspan x="4" y="31.960526315789473">Memory</tspan></text></g><g class="subtechnique T1003.002" transform="translate(15, 254.52631578947367)"><rect class="cell" height="42.421052631578945" width="71.36697247706422" fill="#31a354" stroke="#6B7279"/><rect class="cell" height="42.421052631578945" width="3" transform="translate(-3, 0)" fill="#6B7279" stroke="#6B7279"/><text font-size="11.312280701754386" fill="black"><tspan x="4" y="10.903508771929825">Security</tspan><tspan x="4" y="24.710526315789473">Account</tspan><tspan x="4" y="38.51754385964912">Manager</tspan></text></g><g class="subtechnique T1003.003" transform="translate(15, 296.9473684210526)"><rect class="cell" height="42.421052631578945" width="71.36697247706422" fill="#31a354" stroke="#6B7279"/><rect class="cell" height="42.421052631578945" width="3" transform="translate(-3, 0)" fill="#6B7279" stroke="#6B7279"/><text font-size="12" fill="black"><tspan x="4" y="24.710526315789473">NTDS</tspan></text></g><g class="subtechnique T1003.004" transform="translate(15, 339.36842105263156)"><rect class="cell" height="42.421052631578945" width="71.36697247706422" fill="#31a354" stroke="#6B7279"/><rect class="cell" height="42.421052631578945" width="3" transform="translate(-3, 0)" fill="#6B7279" stroke="#6B7279"/><text font-size="12" fill="black"><tspan x="4" y="17.460526315789473">LSA</tspan><tspan x="4" y="31.960526315789473">Secrets</tspan></text></g></g><g class="tactic-label"><text font-size="11.363211009174313" fill="black" font-weight="bold"><tspan text-anchor="middle" x="43.18348623853211" y="17.460526315789473">Credential</tspan><tspan text-anchor="middle" x="43.18348623853211" y="31.960526315789473">Access</tspan></text></g></g><g class="tactic discovery" transform="translate(575.7798165137615, 0)"><g class="techniques"><g class="technique T1087" transform="translate(0, 42.421052631578945)"><rect class="cell" height="42.421052631578945" width="86.36697247706422" fill="#31a354" stroke="#6B7279"/><polygon class="sidebar" transform="translate(0, 42.421052631578945)" points="0,0 12,0 12,12" fill="#6B7279" visibility="visible"/><text font-size="12" fill="black"><tspan x="4" y="17.460526315789473">Account</tspan><tspan x="4" y="31.960526315789473">Discovery</tspan></text></g><g class="technique T1482" transform="translate(0, 127.26315789473684)"><rect class="cell" height="42.421052631578945" width="86.36697247706422" fill="#31a354" stroke="#6B7279"/><polygon class="sidebar" transform="translate(0, 42.421052631578945)" points="0,0 12,0 12,0" fill="#6B7279" visibility="hidden"/><text font-size="11.312280701754386" fill="black"><tspan x="4" y="10.903508771929825">Domain</tspan><tspan x="4" y="24.710526315789473">Trust</tspan><tspan x="4" y="38.51754385964912">Discovery</tspan></text></g><g class="technique T1046" transform="translate(0, 169.68421052631578)"><rect class="cell" height="42.421052631578945" width="86.36697247706422" fill="#e60d0d" stroke="#6B7279"/><polygon class="sidebar" transform="translate(0, 42.421052631578945)" points="0,0 12,0 12,0" fill="#6B7279" visibility="hidden"/><text font-size="11.312280701754386" fill="white"><tspan x="4" y="10.903508771929825">Network</tspan><tspan x="4" y="24.710526315789473">Service</tspan><tspan x="4" y="38.51754385964912">Scanning</tspan></text></g><g class="technique T1135" transform="translate(0, 212.1052631578947)"><rect class="cell" height="42.421052631578945" width="86.36697247706422" fill="#31a354" stroke="#6B7279"/><polygon class="sidebar" transform="translate(0, 42.421052631578945)" points="0,0 12,0 12,0" fill="#6B7279" visibility="hidden"/><text font-size="11.312280701754386" fill="black"><tspan x="4" y="10.903508771929825">Network</tspan><tspan x="4" y="24.710526315789473">Share</tspan><tspan x="4" y="38.51754385964912">Discovery</tspan></text></g><g class="technique T1069" transform="translate(0, 254.52631578947367)"><rect class="cell" height="42.421052631578945" width="86.36697247706422" fill="#31a354" stroke="#6B7279"/><polygon class="sidebar" transform="translate(0, 42.421052631578945)" points="0,0 12,0 12,12" fill="#6B7279" visibility="visible"/><text font-size="11.312280701754386" fill="black"><tspan x="4" y="10.903508771929825">Permission</tspan><tspan x="4" y="24.710526315789473">Groups</tspan><tspan x="4" y="38.51754385964912">Discovery</tspan></text></g><g class="technique T1057" transform="translate(0, 339.36842105263156)"><rect class="cell" height="42.421052631578945" width="86.36697247706422" fill="#e60d0d" stroke="#6B7279"/><polygon class="sidebar" transform="translate(0, 42.421052631578945)" points="0,0 12,0 12,0" fill="#6B7279" visibility="hidden"/><text font-size="12" fill="white"><tspan x="4" y="17.460526315789473">Process</tspan><tspan x="4" y="31.960526315789473">Discovery</tspan></text></g><g class="technique T1018" transform="translate(0, 381.7894736842105)"><rect class="cell" height="42.421052631578945" width="86.36697247706422" fill="#31a354" stroke="#6B7279"/><polygon class="sidebar" transform="translate(0, 42.421052631578945)" points="0,0 12,0 12,0" fill="#6B7279" visibility="hidden"/><text font-size="11.312280701754386" fill="black"><tspan x="4" y="10.903508771929825">Remote</tspan><tspan x="4" y="24.710526315789473">System</tspan><tspan x="4" y="38.51754385964912">Discovery</tspan></text></g><g class="technique T1082" transform="translate(0, 424.2105263157894)"><rect class="cell" height="42.421052631578945" width="86.36697247706422" fill="#31a354" stroke="#6B7279"/><polygon class="sidebar" transform="translate(0, 42.421052631578945)" points="0,0 12,0 12,0" fill="#6B7279" visibility="hidden"/><text font-size="10.330191826522102" fill="black"><tspan x="4" y="10.903508771929825">System</tspan><tspan x="4" y="24.710526315789473">Information</tspan><tspan x="4" y="38.51754385964912">Discovery</tspan></text></g><g class="technique T1016" transform="translate(0, 466.63157894736844)"><rect class="cell" height="42.421052631578945" width="86.36697247706422" fill="#31a354" stroke="#6B7279"/><polygon class="sidebar" transform="translate(0, 42.421052631578945)" points="0,0 12,0 12,12" fill="#6B7279" visibility="hidden"/><text font-size="8.48421052631579" fill="black"><tspan x="4" y="8.177631578947368">System</tspan><tspan x="4" y="18.532894736842103">Network</tspan><tspan x="4" y="28.888157894736842">Configuration</tspan><tspan x="4" y="39.243421052631575">Discovery</tspan></text></g><g class="technique T1033" transform="translate(0, 509.05263157894734)"><rect class="cell" height="42.421052631578945" width="86.36697247706422" fill="#31a354" stroke="#6B7279"/><polygon class="sidebar" transform="translate(0, 42.421052631578945)" points="0,0 12,0 12,0" fill="#6B7279" visibility="hidden"/><text font-size="11.312280701754386" fill="black"><tspan x="4" y="10.903508771929825">System</tspan><tspan x="4" y="24.710526315789473">Owner/User</tspan><tspan x="4" y="38.51754385964912">Discovery</tspan></text></g></g><g class="subtechniques"><g class="subtechnique T1087.002" transform="translate(15, 84.84210526315789)"><rect class="cell" height="42.421052631578945" width="71.36697247706422" fill="#31a354" stroke="#6B7279"/><rect class="cell" height="42.421052631578945" width="3" transform="translate(-3, 0)" fill="#6B7279" stroke="#6B7279"/><text font-size="12" fill="black"><tspan x="4" y="17.460526315789473">Domain</tspan><tspan x="4" y="31.960526315789473">Account</tspan></text></g><g class="subtechnique T1069.002" transform="translate(15, 296.9473684210526)"><rect class="cell" height="42.421052631578945" width="71.36697247706422" fill="#31a354" stroke="#6B7279"/><rect class="cell" height="42.421052631578945" width="3" transform="translate(-3, 0)" fill="#6B7279" stroke="#6B7279"/><text font-size="12" fill="black"><tspan x="4" y="17.460526315789473">Domain</tspan><tspan x="4" y="31.960526315789473">Groups</tspan></text></g></g><g class="tactic-label"><text font-size="12" fill="black" font-weight="bold"><tspan text-anchor="middle" x="43.18348623853211" y="24.710526315789473">Discovery</tspan></text></g></g><g class="tactic lateral-movement" transform="translate(671.743119266055, 0)"><g class="techniques"><g class="technique T1210" transform="translate(0, 42.421052631578945)"><rect class="cell" height="42.421052631578945" width="86.36697247706422" fill="#3182bd" stroke="#6B7279"/><polygon class="sidebar" transform="translate(0, 42.421052631578945)" points="0,0 12,0 12,0" fill="#6B7279" visibility="hidden"/><text font-size="9.46934250764526" fill="black"><tspan x="4" y="9.903508771929825">Exploitation</tspan><tspan x="4" y="23.710526315789473">of Remote</tspan><tspan x="4" y="37.51754385964912">Services</tspan></text></g><g class="technique T1021" transform="translate(0, 84.84210526315789)"><rect class="cell" height="42.421052631578945" width="86.36697247706422" fill="#e60d0d" stroke="#6B7279"/><polygon class="sidebar" transform="translate(0, 42.421052631578945)" points="0,0 12,0 12,12" fill="#6B7279" visibility="visible"/><text font-size="12" fill="white"><tspan x="4" y="17.460526315789473">Remote</tspan><tspan x="4" y="31.960526315789473">Services</tspan></text></g><g class="technique T1550" transform="translate(0, 212.1052631578947)"><rect class="cell" height="42.421052631578945" width="86.36697247706422" fill="#e6d60d" stroke="#6B7279"/><polygon class="sidebar" transform="translate(0, 42.421052631578945)" points="0,0 12,0 12,12" fill="#6B7279" visibility="visible"/><text font-size="8.116579292267366" fill="black"><tspan x="4" y="9.903508771929825">Use Alternate</tspan><tspan x="4" y="23.710526315789473">Authentication</tspan><tspan x="4" y="37.51754385964912">Material</tspan></text></g></g><g class="subtechniques"><g class="subtechnique T1021.001" transform="translate(15, 127.26315789473684)"><rect class="cell" height="42.421052631578945" width="71.36697247706422" fill="#e60d0d" stroke="#6B7279"/><rect class="cell" height="42.421052631578945" width="3" transform="translate(-3, 0)" fill="#6B7279" stroke="#6B7279"/><text font-size="11.312280701754386" fill="white"><tspan x="4" y="10.903508771929825">Remote</tspan><tspan x="4" y="24.710526315789473">Desktop</tspan><tspan x="4" y="38.51754385964912">Protocol</tspan></text></g><g class="subtechnique T1021.002" transform="translate(15, 169.68421052631578)"><rect class="cell" height="42.421052631578945" width="71.36697247706422" fill="#31a354" stroke="#6B7279"/><rect class="cell" height="42.421052631578945" width="3" transform="translate(-3, 0)" fill="#6B7279" stroke="#6B7279"/><text font-size="8.352919099249375" fill="black"><tspan x="4" y="9.903508771929825">SMB/Windows</tspan><tspan x="4" y="23.710526315789473">Admin</tspan><tspan x="4" y="37.51754385964912">Shares</tspan></text></g><g class="subtechnique T1550.002" transform="translate(15, 254.52631578947367)"><rect class="cell" height="42.421052631578945" width="71.36697247706422" fill="#e6d60d" stroke="#6B7279"/><rect class="cell" height="42.421052631578945" width="3" transform="translate(-3, 0)" fill="#6B7279" stroke="#6B7279"/><text font-size="11.48526376146789" fill="black"><tspan x="4" y="17.460526315789473">Pass</tspan><tspan x="4" y="31.960526315789473">the Hash</tspan></text></g></g><g class="tactic-label"><text font-size="12" fill="black" font-weight="bold"><tspan text-anchor="middle" x="43.18348623853211" y="17.460526315789473">Lateral</tspan><tspan text-anchor="middle" x="43.18348623853211" y="31.960526315789473">Movement</tspan></text></g></g><g class="tactic collection" transform="translate(767.7064220183486, 0)"><g class="techniques"><g class="technique T1560" transform="translate(0, 42.421052631578945)"><rect class="cell" height="42.421052631578945" width="86.36697247706422" fill="#31a354" stroke="#6B7279"/><polygon class="sidebar" transform="translate(0, 42.421052631578945)" points="0,0 12,0 12,12" fill="#6B7279" visibility="visible"/><text font-size="11.312280701754386" fill="black"><tspan x="4" y="10.903508771929825">Archive</tspan><tspan x="4" y="24.710526315789473">Collected</tspan><tspan x="4" y="38.51754385964912">Data</tspan></text></g></g><g class="subtechniques"><g class="subtechnique T1560.001" transform="translate(15, 84.84210526315789)"><rect class="cell" height="42.421052631578945" width="71.36697247706422" fill="#31a354" stroke="#6B7279"/><rect class="cell" height="42.421052631578945" width="3" transform="translate(-3, 0)" fill="#6B7279" stroke="#6B7279"/><text font-size="11.312280701754386" fill="black"><tspan x="4" y="10.903508771929825">Archive</tspan><tspan x="4" y="24.710526315789473">via</tspan><tspan x="4" y="38.51754385964912">Utility</tspan></text></g></g><g class="tactic-label"><text font-size="11.363211009174313" fill="black" font-weight="bold"><tspan text-anchor="middle" x="43.18348623853211" y="24.710526315789473">Collection</tspan></text></g></g><g class="tactic command-and-control" transform="translate(863.6697247706421, 0)"><g class="techniques"><g class="technique T1219" transform="translate(0, 42.421052631578945)"><rect class="cell" height="42.421052631578945" width="86.36697247706422" fill="#31a354" stroke="#6B7279"/><polygon class="sidebar" transform="translate(0, 42.421052631578945)" points="0,0 12,0 12,0" fill="#6B7279" visibility="hidden"/><text font-size="11.312280701754386" fill="black"><tspan x="4" y="10.903508771929825">Remote</tspan><tspan x="4" y="24.710526315789473">Access</tspan><tspan x="4" y="38.51754385964912">Software</tspan></text></g></g><g class="subtechniques"/><g class="tactic-label"><text font-size="11.312280701754386" fill="black" font-weight="bold"><tspan text-anchor="middle" x="43.18348623853211" y="10.903508771929825">Command</tspan><tspan text-anchor="middle" x="43.18348623853211" y="24.710526315789473">and</tspan><tspan text-anchor="middle" x="43.18348623853211" y="38.51754385964912">Control</tspan></text></g></g><g class="tactic exfiltration" transform="translate(959.6330275229357, 0)"><g class="techniques"><g class="technique T1048" transform="translate(0, 42.421052631578945)"><rect class="cell" height="42.421052631578945" width="86.36697247706422" fill="#3182bd" stroke="#6B7279"/><polygon class="sidebar" transform="translate(0, 42.421052631578945)" points="0,0 12,0 12,12" fill="#6B7279" visibility="hidden"/><text font-size="8.48421052631579" fill="black"><tspan x="4" y="8.177631578947368">Exfiltration</tspan><tspan x="4" y="18.532894736842103">Over</tspan><tspan x="4" y="28.888157894736842">Alternative</tspan><tspan x="4" y="39.243421052631575">Protocol</tspan></text></g><g class="technique T1567" transform="translate(0, 84.84210526315789)"><rect class="cell" height="42.421052631578945" width="86.36697247706422" fill="#3182bd" stroke="#6B7279"/><polygon class="sidebar" transform="translate(0, 42.421052631578945)" points="0,0 12,0 12,12" fill="#6B7279" visibility="visible"/><text font-size="9.46934250764526" fill="black"><tspan x="4" y="9.903508771929825">Exfiltration</tspan><tspan x="4" y="23.710526315789473">Over</tspan><tspan x="4" y="37.51754385964912">Web Service</tspan></text></g></g><g class="subtechniques"><g class="subtechnique T1567.002" transform="translate(15, 127.26315789473684)"><rect class="cell" height="42.421052631578945" width="71.36697247706422" fill="#3182bd" stroke="#6B7279"/><rect class="cell" height="42.421052631578945" width="3" transform="translate(-3, 0)" fill="#6B7279" stroke="#6B7279"/><text font-size="7.656842507645259" fill="black"><tspan x="4" y="9.903508771929825">Exfiltration</tspan><tspan x="4" y="23.710526315789473">to Cloud</tspan><tspan x="4" y="37.51754385964912">Storage</tspan></text></g></g><g class="tactic-label"><text font-size="9.46934250764526" fill="black" font-weight="bold"><tspan text-anchor="middle" x="43.18348623853211" y="23.710526315789473">Exfiltration</tspan></text></g></g></g></g></g></svg>